<svg width="30" height="30" viewBox="0 0 30 30" fill="black" xmlns="http://www.w3.org/2000/svg">
<path fill-rule="evenodd" clip-rule="evenodd" d="M19.25 8.75C19.25 11.3734 17.1234 13.5 14.5 13.5C11.8766 13.5 9.75 11.3734 9.75 8.75C9.75 6.12665 11.8766 4 14.5 4C17.1234 4 19.25 6.12665 19.25 8.75ZM20.25 8.75C20.25 11.9256 17.6756 14.5 14.5 14.5C11.3244 14.5 8.75 11.9256 8.75 8.75C8.75 5.57436 11.3244 3 14.5 3C17.6756 3 20.25 5.57436 20.25 8.75ZM24.2007 22.5568C24.6004 23.5217 24.8532 24.5391 24.9523 25.575H14.5H4.04773C4.14684 24.5391 4.3996 23.5217 4.79926 22.5568C5.32694 21.2829 6.10036 20.1254 7.07538 19.1504C8.05039 18.1754 9.2079 17.4019 10.4818 16.8743C11.7557 16.3466 13.1211 16.075 14.5 16.075C15.8789 16.075 17.2443 16.3466 18.5182 16.8743C19.7921 17.4019 20.9496 18.1754 21.9246 19.1504C22.8996 20.1254 23.6731 21.2829 24.2007 22.5568ZM25.1246 22.1741C25.5746 23.2605 25.8545 24.4075 25.9564 25.575C25.9854 25.907 26 26.2406 26 26.575H25H14.5H4H3C3 26.2406 3.01458 25.907 3.04356 25.575C3.14547 24.4075 3.42541 23.2605 3.87539 22.1741C4.45331 20.7789 5.3004 19.5111 6.36827 18.4433C7.43615 17.3754 8.7039 16.5283 10.0991 15.9504C11.4944 15.3725 12.9898 15.075 14.5 15.075C16.0102 15.075 17.5056 15.3725 18.9009 15.9504C20.2961 16.5283 21.5639 17.3754 22.6317 18.4433C23.6996 19.5111 24.5467 20.7789 25.1246 22.1741Z"/>
</svg>
