<svg width="30" height="30" viewBox="0 0 30 30" fill="black" xmlns="http://www.w3.org/2000/svg">
<path fill-rule="evenodd" clip-rule="evenodd" d="M7.15157 9.5C6.29153 9.5 5.54506 10.1105 5.40047 10.9607L3.27457 23.4607C3.09106 24.5396 3.93991 25.5 5.02567 25.5H24.9739C26.0596 25.5 26.9086 24.5396 26.7251 23.4607L24.5991 10.9607C24.4546 10.1104 23.7081 9.5 22.848 9.5H7.15157ZM7.15157 10.5C6.76455 10.5 6.44674 10.773 6.38632 11.1283L4.26041 23.6283C4.18475 24.0731 4.53501 24.5 5.02567 24.5H24.9739C25.4646 24.5 25.8149 24.0731 25.7392 23.6283L23.6133 11.1283C23.5529 10.7731 23.2351 10.5 22.848 10.5H7.15157Z"/>
<path fill-rule="evenodd" clip-rule="evenodd" d="M14.774 3.625C12.2887 3.625 10.274 5.63972 10.274 8.125C10.274 8.40114 10.0501 8.625 9.77399 8.625C9.49784 8.625 9.27399 8.40114 9.27399 8.125C9.27399 5.08743 11.7364 2.625 14.774 2.625C17.8115 2.625 20.274 5.08743 20.274 8.125C20.274 8.40114 20.0501 8.625 19.774 8.625C19.4978 8.625 19.274 8.40114 19.274 8.125C19.274 5.63972 17.2592 3.625 14.774 3.625Z"/>
</svg>
