<svg width="30" height="30" viewBox="0 0 30 30" fill="black" xmlns="http://www.w3.org/2000/svg">
<path fill-rule="evenodd" clip-rule="evenodd" d="M21.3353 5.78911C18.9167 5.51956 16.3148 6.66509 15.0007 8.55618C13.6811 6.66466 11.0586 5.51954 8.66683 5.78915C4.96459 6.19414 2.65261 9.9409 3.38603 13.4987C3.88734 15.9268 5.50421 17.6499 7.54412 19.3646C8.19376 19.9107 8.88467 20.4552 9.6056 21.0234C11.1823 22.266 12.9026 23.6219 14.6491 25.3547C14.8443 25.5484 15.1593 25.5481 15.3542 25.3539C17.102 23.6121 18.8296 22.2497 20.4136 21.0006C21.125 20.4396 21.8074 19.9014 22.4497 19.3619C24.4917 17.6469 26.1149 15.9234 26.6164 13.4986C27.3499 9.94065 25.0377 6.19391 21.3353 5.78911ZM15.4565 9.76685C15.3755 9.9455 15.1974 10.0602 15.0012 10.0602C14.805 10.0602 14.627 9.94551 14.5459 9.76685C14.494 9.65258 14.4361 9.54035 14.3725 9.43037C13.3746 7.7042 10.9822 6.53416 8.7781 6.78294L8.77631 6.78314C5.74229 7.11457 3.73357 10.2313 4.36538 13.2965C4.79435 15.374 6.17831 16.9102 8.18757 18.5991C8.79512 19.1098 9.46199 19.6356 10.1691 20.1932C11.6601 21.3688 13.3302 22.6855 15.0005 24.2993C16.6741 22.6758 18.3513 21.3527 19.8489 20.1712L19.9794 20.0683C20.6288 19.5559 21.2429 19.0696 21.8066 18.5962C23.8193 16.9057 25.2082 15.3698 25.637 13.2966C26.269 10.2314 24.2602 7.11458 21.2262 6.78313L21.225 6.78301C19.2959 6.56782 17.265 7.41232 16.1068 8.76039C15.8396 9.07135 15.6189 9.40912 15.4565 9.76685Z"/>
</svg>
