<svg width="30" height="30" viewBox="0 0 30 30" fill="black" xmlns="http://www.w3.org/2000/svg">
<path fill-rule="evenodd" clip-rule="evenodd" d="M20 13C20 16.866 16.866 20 13 20C9.13401 20 6 16.866 6 13C6 9.13401 9.13401 6 13 6C16.866 6 20 9.13401 20 13ZM21 13C21 17.4183 17.4183 21 13 21C8.58172 21 5 17.4183 5 13C5 8.58172 8.58172 5 13 5C17.4183 5 21 8.58172 21 13ZM19.8824 19.6201C19.6872 19.4248 19.3706 19.4248 19.1753 19.6201C18.9801 19.8153 18.9801 20.1319 19.1753 20.3272L24.6466 25.7984C24.8418 25.9937 25.1584 25.9937 25.3537 25.7984C25.5489 25.6032 25.5489 25.2866 25.3537 25.0913L19.8824 19.6201Z"/>
</svg>
