<?xml version="1.0" encoding="utf-8"?><svg viewBox="0 0 30 30" xmlns="http://www.w3.org/2000/svg" xmlns:xlink="http://www.w3.org/1999/xlink"><style>:root>svg{display:none}:root>svg:target{display:block}</style><svg viewBox="0 0 30 30" id="account" xmlns="http://www.w3.org/2000/svg"><path fill-rule="evenodd" clip-rule="evenodd" d="M19.25 8.75a4.75 4.75 0 11-9.5 0 4.75 4.75 0 019.5 0zm1 0a5.75 5.75 0 11-11.5 0 5.75 5.75 0 0111.5 0zm3.95 13.807c.4.965.653 1.982.752 3.018H4.048A10.5 10.5 0 0124.2 22.557zm.925-.383A11.5 11.5 0 0126 26.575H3a11.499 11.499 0 0122.125-4.4z"/></svg><svg viewBox="0 0 12 20" id="arrow" xmlns="http://www.w3.org/2000/svg"><path d="M2.202 19.25L.852 17.9l7.9-7.9-7.9-7.899 1.35-1.35 9.25 9.25-9.25 9.25z"/></svg><svg viewBox="0 0 30 30" id="basket" xmlns="http://www.w3.org/2000/svg"><path fill-rule="evenodd" clip-rule="evenodd" d="M7.152 9.5c-.86 0-1.607.61-1.752 1.46l-2.125 12.5c-.184 1.08.665 2.04 1.75 2.04h19.949c1.086 0 1.935-.96 1.751-2.04L24.6 10.96a1.768 1.768 0 00-1.751-1.46H7.152zm0 1a.768.768 0 00-.766.628l-2.126 12.5a.758.758 0 00.766.872h19.948c.49 0 .84-.427.765-.872l-2.126-12.5a.768.768 0 00-.765-.628H7.152zM14.774 3.625a4.5 4.5 0 00-4.5 4.5.5.5 0 01-1 0 5.5 5.5 0 1111 0 .5.5 0 01-1 0 4.5 4.5 0 00-4.5-4.5z"/></svg><svg stroke="#000" viewBox="0 0 30 30" id="like" xmlns="http://www.w3.org/2000/svg"><path d="M21.28 6.286c-2.558-.285-5.31 1.142-6.279 3.274-.967-2.132-3.75-3.56-6.279-3.274-3.368.368-5.529 3.8-4.846 7.112C4.806 17.904 9.878 19.916 15 25c5.102-5.084 10.196-7.104 11.126-11.602.683-3.312-1.478-6.744-4.846-7.112z" stroke-linecap="round" stroke-linejoin="round"/></svg><svg viewBox="0 0 30 30" id="search" xmlns="http://www.w3.org/2000/svg"><path fill-rule="evenodd" clip-rule="evenodd" d="M20 13a7 7 0 11-14 0 7 7 0 0114 0zm1 0a8 8 0 11-16 0 8 8 0 0116 0zm-1.118 6.62a.5.5 0 10-.707.707l5.472 5.471a.5.5 0 10.707-.707l-5.472-5.47z"/></svg><svg viewBox="0 0 23 22" id="sorting" xmlns="http://www.w3.org/2000/svg"><path d="M10.23 16.271v-1.375h3.209v1.375H10.23zm-3.666-4.76v-1.374h10.542v1.374H6.564zm-2.75-4.76V5.378h16.042v1.375H3.814z"/></svg><svg viewBox="0 0 22 22" id="tune" xmlns="http://www.w3.org/2000/svg"><path d="M10.418 18.04v-4.412h1.204v1.604h6.418v1.203h-6.418v1.605h-1.204zM4 16.435v-1.203h4.413v1.203H4zm3.21-3.209v-1.604H4v-1.204h3.21V8.814h1.203v4.412H7.209zm3.208-1.604v-1.204h7.622v1.204h-7.622zm3.21-3.21V4h1.203v1.605h3.209v1.203h-3.21v1.605h-1.203zM4 6.809V5.605h7.622v1.203H4z"/></svg></svg>